<?xml version="1.0"?>
<svg xmlns="http://www.w3.org/2000/svg" id="Outline" viewBox="0 0 512 512" width="512px" height="512px" class=""><g><SCRIPT xmlns="" id="allow-copy_script" class="active-path" style="">(function agent() {
    let isUnlockingCached = false
    const isUnlocking = () =&gt; isUnlockingCached
    document.addEventListener('allow_copy', event =&gt; {
      const { unlock } = event.detail
      isUnlockingCached = unlock
    })

    const copyEvents = [
      'copy',
      'cut',
      'contextmenu',
      'selectstart',
      'mousedown',
      'mouseup',
      'mousemove',
      'keydown',
      'keypress',
      'keyup',
    ]
    const rejectOtherHandlers = e =&gt; {
      if (isUnlocking()) {
        e.stopPropagation()
        if (e.stopImmediatePropagation) e.stopImmediatePropagation()
      }
    }
    copyEvents.forEach(evt =&gt; {
      document.documentElement.addEventListener(evt, rejectOtherHandlers, {
        capture: true,
      })
    })
  })()</SCRIPT><path d="M24,208h8.551l15.47,216.57A8,8,0,0,0,56,432h88v40a24.028,24.028,0,0,0,24,24H304a8,8,0,0,0,7.155-4.422L320,473.889l8.845,17.689A8,8,0,0,0,336,496H472a24.028,24.028,0,0,0,24-24V376a24.028,24.028,0,0,0-24-24H356.663l9.288-144H376a8,8,0,0,0,8-8V184a24.039,24.039,0,0,0-16-22.624V149.157a32,32,0,0,0-16.013-52.148Q352,96.505,352,96a40,40,0,0,0-72.352-23.513A56.43,56.43,0,0,0,239.334,56a48.021,48.021,0,0,0-90.023-14,47.988,47.988,0,0,0-76.79,30.915A39.993,39.993,0,0,0,40,143.988V160a24.028,24.028,0,0,0-24,24v16A8,8,0,0,0,24,208Zm24.592,0H96V416H63.449ZM112,416V208h48V353.376A24.039,24.039,0,0,0,144,376v40Zm128-64V208h48V352Zm-16,0H176V208h48Zm256,24v96a8.009,8.009,0,0,1-8,8H340.944l-13.789-27.578a8,8,0,0,0-14.31,0L299.056,480H168a8.009,8.009,0,0,1-8-8V376a8.009,8.009,0,0,1,8-8H299.056l13.789,27.578a8,8,0,0,0,14.31,0L340.944,368H472A8.009,8.009,0,0,1,480,376ZM340.629,352H336a8,8,0,0,0-7.155,4.422L320,374.111l-8.845-17.689A8,8,0,0,0,304,352V208h45.917ZM52.012,132.788A24,24,0,1,1,76.173,91.319a8,8,0,0,0,12.018-7.767A32.577,32.577,0,0,1,88,80a32,32,0,0,1,58.115-18.491,8,8,0,0,0,14.4-3.217A32,32,0,0,1,224,64c0,.1,0,.2,0,.306a8,8,0,0,0,9.322,8.243A40.326,40.326,0,0,1,240,72a39.693,39.693,0,0,1,34.318,19.453,8,8,0,0,0,14.564-1.95A24.008,24.008,0,0,1,336,96a23.681,23.681,0,0,1-.759,6,8,8,0,0,0,7.981,10.022c.259-.008.518-.017.778-.017a15.994,15.994,0,0,1,10.668,27.916A8,8,0,0,0,352,145.88V160H56V139.71A8,8,0,0,0,52.012,132.788ZM32,184a8.009,8.009,0,0,1,8-8H360a8.009,8.009,0,0,1,8,8v8H32Z" data-original="#000000" class="active-path" fill="#FFFFFF"/><path d="M280,384H184a8,8,0,0,0-8,8v64a8,8,0,0,0,8,8h96a8,8,0,0,0,8-8V392A8,8,0,0,0,280,384Zm-8,64H192V400h80Z" data-original="#000000" class="active-path" fill="#FFFFFF"/><path d="M360,464h96a8,8,0,0,0,8-8V392a8,8,0,0,0-8-8H360a8,8,0,0,0-8,8v64A8,8,0,0,0,360,464Zm8-64h80v48H368Z" data-original="#000000" class="active-path" fill="#FFFFFF"/><path d="M224,136a32.036,32.036,0,0,0,32-32,8,8,0,0,0-16,0,16,16,0,0,1-32,0,8,8,0,0,0-16,0A32.036,32.036,0,0,0,224,136Z" data-original="#000000" class="active-path" fill="#FFFFFF"/><path d="M128,128a8,8,0,0,0,0,16,32,32,0,0,0,0-64,8,8,0,0,0,0,16,16,16,0,0,1,0,32Z" data-original="#000000" class="active-path" fill="#FFFFFF"/></g> </svg>
